<svg width="294" height="281" viewBox="0 0 294 281" fill="none" xmlns="http://www.w3.org/2000/svg">
<path d="M100.5 1L147 31L80.1418 52.75L91.0003 24.5L100.5 1Z" fill="#FEA225"/>
<path d="M191.5 1L210.5 51.5L145.5 31.25L167.5 16L191.5 1Z" fill="#FEA225"/>
<path d="M264 54L250.5 107L230.5 80L209.5 51L264 54Z" fill="#FEA225"/>
<path d="M293 140L247.25 178.105V101.895L293 140Z" fill="#FEA225"/>
<path d="M265.249 226.447L211 228.5L250 174L251 171.5L254 185L265.249 226.447Z" fill="#FEA225"/>
<path d="M191.5 279L147 250.5L213.5 226.5L191.5 279Z" fill="#FEA225"/>
<path d="M101.5 279.5L81.9525 229.25L146 250L101.5 279.5Z" fill="#FEA225"/>
<path d="M27.5003 226L41.5003 173.5L82.0003 229L27.5003 226Z" fill="#FEA225"/>
<path d="M41 175L0.999985 140.5L20.5003 124.5L41.0003 107.5L41 175Z" fill="#FEA225"/>
<path d="M41.5003 105.5L27.5003 53.5L81.5003 51.5L41.5003 105.5Z" fill="#FEA225"/>
<path d="M94.0003 38.5L142.5 31H169.5L194.5 35L249.5 92.5L252 151.5L244 207L178 250L152.5 252L112 241L84.5003 230.5L57.0003 218.5L28.5003 140.5L50.5003 81.5L94.0003 38.5Z" fill="#FEA225"/>
<path d="M228.5 139C228.5 184.566 191.785 221.5 146.5 221.5C101.215 221.5 64.5 184.566 64.5 139C64.5 93.4337 101.215 56.5 146.5 56.5C191.785 56.5 228.5 93.4337 228.5 139Z" fill="#E3DA99" stroke="black"/>
<path d="M103.5 172.234L119.317 178.465L119.347 178.477L119.379 178.485L129.379 180.985L129.431 180.998L129.484 181L144.984 181.5L144.992 181.5H145H157.5H157.569L157.635 181.481L170.135 177.981L170.158 177.975L170.179 177.967L176.669 175.471L182.365 173.572L183.156 174.363L175.808 178.037L166.842 181.026L166.842 181.025L166.829 181.03L161.407 183.002L137.015 183.5L124.609 182.507L111.187 177.536L103.5 174.173V172.234Z" fill="#251E23" stroke="black"/>
<path d="M184.7 158.1L184.516 158.238L184.501 158.467L184.001 165.967L184 165.983V166V173.793L183.836 173.957L181.986 173.587L181.503 160.088L182.457 157.705L183.411 155.796L184.707 154.5H186.5V156.75L184.7 158.1Z" fill="#251E23" stroke="black"/>
<path d="M183.16 172.453L184.09 171.213L188.688 174.89L188.746 174.937L188.814 174.964L193.814 176.964L193.884 176.992L193.958 176.998L199.5 177.46V178.5H191.151L189.786 177.59L184.326 173.619L183.16 172.453Z" fill="#251E23" stroke="black"/>
<path d="M147.5 118C147.5 131.47 144.769 143.64 140.377 152.425C135.97 161.239 129.974 166.5 123.5 166.5C117.026 166.5 111.03 161.239 106.623 152.425C102.231 143.64 99.5 131.47 99.5 118C99.5 104.53 102.231 92.3596 106.623 83.5754C111.03 74.7613 117.026 69.5 123.5 69.5C129.974 69.5 135.97 74.7613 140.377 83.5754C144.769 92.3596 147.5 104.53 147.5 118Z" fill="#FAF5D7" stroke="black"/>
<path d="M187.5 117C187.5 130.47 184.769 142.64 180.377 151.425C175.97 160.239 169.974 165.5 163.5 165.5C157.026 165.5 151.03 160.239 146.623 151.425C142.231 142.64 139.5 130.47 139.5 117C139.5 103.53 142.231 91.3596 146.623 82.5754C151.03 73.7613 157.026 68.5 163.5 68.5C169.974 68.5 175.97 73.7613 180.377 82.5754C184.769 91.3596 187.5 103.53 187.5 117Z" fill="#FFF8DD" stroke="black"/>
<path d="M111.566 98.4062C113.649 93.7114 116.538 90.2974 119.76 88.7235C122.981 87.1497 126.343 87.5094 129.296 89.7438C132.249 91.9781 134.616 95.9545 136.011 101.021C137.406 106.088 137.745 111.945 136.972 117.632C136.2 123.319 134.362 128.498 131.76 132.322C129.158 136.146 125.946 138.387 122.65 138.678C119.355 138.969 116.171 137.292 113.621 133.923C111.071 130.554 109.306 125.693 108.615 120.135L122.834 113.234L111.566 98.4062Z" fill="#23253C"/>
<path d="M152.566 102.406C154.649 97.7114 157.538 94.2974 160.76 92.7235C163.981 91.1497 167.343 91.5094 170.296 93.7438C173.249 95.9781 175.616 99.9545 177.011 105.021C178.406 110.088 178.745 115.945 177.972 121.632C177.2 127.319 175.362 132.498 172.76 136.322C170.158 140.146 166.946 142.387 163.65 142.678C160.355 142.969 157.171 141.292 154.621 137.923C152.071 134.554 150.306 129.693 149.615 124.135L163.834 117.234L152.566 102.406Z" fill="#23253C"/>
<path d="M144.499 93.0086L144.018 106H100.116L101.985 97.1222L104.474 88.6605L106.951 82.22L111.388 74.8246L115.292 71.4093L118.688 69.4683L122.562 68.5H127.882L131.724 70.4213L134.662 72.8696L138.117 76.3243L140.575 79.7649L144.009 86.1426L144.499 93.0086Z" fill="#96CBC3" stroke="black"/>
<path d="M186.5 106H139.537L139.996 99.5745L141.48 93.1422L147.446 76.7371L151.365 71.3484L153.771 69.4235L157.637 67.4903L163.444 67.0064L171.212 69.4339L176.605 75.8073L181.546 82.724L185.017 94.1292L186.5 100.557V106Z" fill="#96CBC3" stroke="black"/>
<line x1="100.464" y1="1.1857" x2="80.4642" y2="51.1857" stroke="black"/>
<line x1="100.273" y1="0.581195" x2="146.273" y2="30.5812" stroke="black"/>
<line x1="145.727" y1="30.5812" x2="191.727" y2="0.581193" stroke="black"/>
<line x1="191.467" y1="0.822391" x2="210.467" y2="50.8224" stroke="black"/>
<line x1="210.028" y1="50.5008" x2="264.028" y2="53.5008" stroke="black"/>
<line x1="264.483" y1="53.13" x2="250.483" y2="105.13" stroke="black"/>
<line x1="250.321" y1="104.617" x2="293.321" y2="140.617" stroke="black"/>
<line x1="293.315" y1="140.389" x2="251.315" y2="174.389" stroke="black"/>
<line x1="251.483" y1="173.872" x2="265.483" y2="226.872" stroke="black"/>
<line x1="212.981" y1="228.5" x2="264.981" y2="226.5" stroke="black"/>
<line x1="213.459" y1="228.198" x2="191.459" y2="279.198" stroke="black"/>
<line x1="146.271" y1="249.58" x2="191.271" y2="278.58" stroke="black"/>
<line x1="146.277" y1="250.416" x2="101.277" y2="280.416" stroke="black"/>
<line x1="82.4685" y1="228.825" x2="101.469" y2="279.825" stroke="black"/>
<line x1="27.0356" y1="225.501" x2="83.0356" y2="229.501" stroke="black"/>
<path d="M27.5178 224.868L41.5 175" stroke="black"/>
<line x1="41.6754" y1="175.38" x2="0.675367" y2="140.38" stroke="black"/>
<line x1="1.67618" y1="140.619" x2="41.6762" y2="106.619" stroke="black"/>
<line x1="41.516" y1="107.125" x2="27.516" y2="53.1255" stroke="black"/>
<line x1="26.9849" y1="53.136" x2="80.9693" y2="51.5002" stroke="black"/>
</svg>
